<svg id="Capa_1" data-name="Capa 1" xmlns="http://www.w3.org/2000/svg" viewBox="0 0 512 512"><defs><style>.cls-1{fill:#f0f0f3;}.cls-2{fill:#f2c1a6;}.cls-3{fill:#464267;}</style></defs><path class="cls-1" d="M442,247.71V156a30,30,0,0,1,60,0V291.84a120,120,0,0,1-66.33,107.33L382,426v60H276V355.45a49.39,49.39,0,0,1,44.46-49.15c.12,0,45.84-7,67.87-29.06l22.46-22.45A30,30,0,0,1,442,247.71Z"/><path class="cls-2" d="M319,26c54.78,0,73.87,50.45,73.87,80,0,60-49.32,94.09-136.82,170-87.5-75.91-136.82-110-136.82-170,0-29.55,19.09-80,73.87-80,33.63,0,52.27,24.55,62.95,44.09C266.68,50.55,285.32,26,319,26Z"/><path class="cls-1" d="M70,247.71a30,30,0,0,1,31.21,7.08l22.46,22.45c21.59,21.59,67.77,29,67.87,29.06A49.39,49.39,0,0,1,236,355.45V486H130V426L76.33,399.17A120,120,0,0,1,10,291.84V156a30,30,0,0,1,60,0Z"/><path class="cls-3" d="M402.82,106c0-34.8-22.77-90-83.87-90-25.1,0-46.22,11.83-62.95,35.23C239.27,27.84,218.15,16,193.05,16c-61.1,0-83.87,55.2-83.87,90,0,60,46.82,97.52,110.79,152.22,9.4,8,19.12,16.34,29.48,25.33a10,10,0,0,0,13.1,0c10.37-9,20.08-17.3,29.48-25.33C359,201,402.82,164.72,402.82,106ZM256,262.78c-8-6.9-15.61-13.42-23-19.77C166,185.79,129.18,154.27,129.18,106c0-32.74,21.42-70,63.87-70,22.15,0,39.87,12.72,54.18,38.89a10,10,0,0,0,17.54,0C279.08,48.72,296.8,36,319,36c41.86,0,63.87,36.7,63.87,70,0,48.27-36.86,79.79-103.79,137-7.42,6.34-15,12.86-23,19.76Z"/><path class="cls-3" d="M71.86,408.11,120,432.18V486a10,10,0,0,0,10,10H236a10,10,0,0,0,10-10V355.45a59.18,59.18,0,0,0-53.38-59.09l-.82-.09c-17.6-1.76-48.76-13.8-61.06-26.1l-22.46-22.45A39.73,39.73,0,0,0,80,236V156a40,40,0,0,0-80,0V291.84A130,130,0,0,0,71.86,408.11ZM20,156a20,20,0,0,1,40,0v85.36a40,40,0,0,0-8.28,62.92l51.21,51.22a10,10,0,0,0,14.14-14.14L65.86,290.14a20,20,0,0,1,7.47-33h0a20,20,0,0,1,20.8,4.72l22.46,22.45c23.18,23.19,73.84,31.91,73.94,31.94A39.27,39.27,0,0,1,226,355.45V476H140V426a10,10,0,0,0-5.53-8.94L80.8,390.23A109.42,109.42,0,0,1,20,291.84Z"/><circle class="cls-3" cx="459" cy="384" r="10"/><path class="cls-3" d="M472,116a40,40,0,0,0-40,40v80a39.73,39.73,0,0,0-28.28,11.72l-22.46,22.45c-12.3,12.3-43.46,24.34-61.13,26.11l-.67.07A59.2,59.2,0,0,0,266,355.45V486a10,10,0,0,0,10,10H382a10,10,0,0,0,10-10V432.18l32.73-16.36a10,10,0,0,0-8.94-17.89l-38.26,19.13A10,10,0,0,0,372,426v50H286V355.45a39.29,39.29,0,0,1,35.54-39.21l.66-.07c21.69-2.17,57.6-16.26,73.2-31.86l22.46-22.45a20,20,0,0,1,20.8-4.72h0a20,20,0,0,1,7.47,33l-51.21,51.22a10,10,0,0,0,14.14,14.14l51.21-51.22A40,40,0,0,0,452,241.36V156a20,20,0,0,1,40,0V291.84a110.37,110.37,0,0,1-13.35,52.53,10,10,0,0,0,17.57,9.55A130.42,130.42,0,0,0,512,291.84V156a40,40,0,0,0-40-40Z"/></svg>