<svg id="Capa_1" data-name="Capa 1" xmlns="http://www.w3.org/2000/svg" viewBox="0 0 512 512"><defs><style>.cls-1{fill:#e0dfe5;}.cls-1,.cls-2,.cls-3,.cls-4,.cls-5{fill-rule:evenodd;}.cls-2{fill:#c0bfcb;}.cls-3{fill:#dedde4;}.cls-4{fill:#e9e8ed;}.cls-5{fill:#f2c1a6;}.cls-6{fill:#464267;}</style></defs><path class="cls-1" d="M409.58,95.88A139.16,139.16,0,1,0,386.1,311.49c7.2-9.53,14.77-14.69,24.76-23.33,8.93-7.71,9.19-17.49,9.19-28.92a30.45,30.45,0,0,0-30.46-30.44c-16.82,0-30.47,13.61-30.47,31.55,0,14.85-11.23,26-24.93,26s-25-11.2-25-26c0-45.47,36-81.44,80.36-81.44a80.17,80.17,0,0,1,60.24,27.18A138.83,138.83,0,0,0,409.58,95.88Z"/><path class="cls-2" d="M180.76,64A184.29,184.29,0,0,0,364.68,370.59c.42-21.6,3.57-29.71,16.11-51.08a78.79,78.79,0,0,1,5.3-8,139.09,139.09,0,1,1,63.74-105.39,80,80,0,0,1,20.11,53.15c0,14-1.5,26.62-5.93,38A184.27,184.27,0,0,0,311.38,10h-.48A183.8,183.8,0,0,0,180.76,64Z"/><path class="cls-3" d="M126.81,286.06a32.38,32.38,0,0,0-.76,44.93c.25.28.51.54.76.82l46.69,46.66.79.76a32.53,32.53,0,0,0,45-.76l16.14-16.16A184.84,184.84,0,0,1,143,269.9Z"/><path class="cls-4" d="M126.05,331,79,378l48.28,48.22,47-47-.79-.76-46.69-46.66C126.56,331.52,126.3,331.27,126.05,331Z"/><path class="cls-1" d="M79,378,51.25,405.74,99.53,454l27.74-27.75Z"/><path class="cls-4" d="M51.25,405.74,26.46,430.51a34.11,34.11,0,0,0,48.25,48.24L99.53,454Z"/><path class="cls-5" d="M389.58,452.11a24.95,24.95,0,1,0,25,24.94A25,25,0,0,0,389.58,452.11Z"/><path class="cls-5" d="M380.79,319.51c-12.54,21.37-15.69,29.48-16.11,51.08,0,1.92-.06,3.94-.06,6.09a25,25,0,0,0,49.92,0c0-15.79,1-17.8,9.31-32,4.68-8,12.82-12.89,19.66-18.82,10-8.64,16.48-18.11,20.5-28.57v0c4.43-11.42,5.93-24,5.93-38a80.35,80.35,0,0,0-80.36-80.33c-44.36,0-80.35,36-80.35,81.44,0,14.85,11.23,26,25,26s24.93-11.2,24.93-26c0-18,13.64-31.55,30.46-31.55a30.44,30.44,0,0,1,30.47,30.44c0,11.43-.26,21.2-9.19,28.91-10,8.65-17.56,13.81-24.77,23.33a78.79,78.79,0,0,0-5.3,8Z"/><path class="cls-6" d="M389.58,442.11a34.95,34.95,0,1,0,35,34.94A35,35,0,0,0,389.58,442.11Zm0,49.89a14.95,14.95,0,1,1,15-14.95A15,15,0,0,1,389.58,492Z"/><path class="cls-6" d="M448.59,56.89A192.35,192.35,0,0,0,333.85,1.31,195.48,195.48,0,0,0,211.36,27.49a10,10,0,0,0,10.28,17.16A174.41,174.41,0,0,1,478.53,243.27a90,90,0,0,0-18.44-40.46,149,149,0,0,0-43.44-114c-58.18-58.1-152.84-58.1-211,0A149.11,149.11,0,0,0,311,343.34a150.4,150.4,0,0,0,50.45-8.75c-3.86,8.84-5.74,16.91-6.46,28.31a174.69,174.69,0,0,1-202.57-96.23,9.89,9.89,0,0,0-.74-1.67,173.67,173.67,0,0,1,10-160.61,10,10,0,1,0-17.13-10.33,195.2,195.2,0,0,0-13.49,173.62L119.74,279a42.48,42.48,0,0,0-6.81,51l-41,41h0l-27.71,27.7,0,0h0L19.39,423.44a44.07,44.07,0,0,0,31.2,75.26,43.73,43.73,0,0,0,31.18-12.87l24.55-24.53.28-.25c.09-.09.16-.19.25-.28l68.48-68.44a42.45,42.45,0,0,0,51-6.8l11.35-11.37a194.26,194.26,0,0,0,117.57,9.28,35,35,0,0,0,69.27-6.76c0-13.39.14-13.65,7.93-26.92,2.51-4.28,7-7.8,11.7-11.53,1.92-1.52,3.92-3.09,5.87-4.78a81.59,81.59,0,0,0,23-31.65C524.2,225,514,122.25,448.59,56.89ZM127.26,412.09,93.14,378,126,345.15l34.11,34.09ZM99.51,439.83,65.4,405.74,79,392.15l34.13,34.08ZM67.63,471.69a24.12,24.12,0,0,1-34.1-34.11l17.72-17.71L85.36,454Zm144.58-100.3a22.4,22.4,0,0,1-31.64,0l-46.69-46.66a22.43,22.43,0,0,1,0-31.6l6.26-6.26a195.94,195.94,0,0,0,78.38,78.2Zm7.56-85.86a129.05,129.05,0,0,1,0-182.57c50.38-50.33,132.36-50.33,182.74,0A128.91,128.91,0,0,1,440,184.28a90.1,90.1,0,0,0-114.28,11.26,91.39,91.39,0,0,0-26.44,64.81c0,20.21,15.35,36,35,36s34.93-15.84,34.93-36c0-12.09,9-21.55,20.47-21.55a20.47,20.47,0,0,1,20.46,20.44c0,11.41-.54,16.87-5.73,21.35-2.32,2-4.51,3.83-6.63,5.59-6.61,5.48-12.57,10.45-18.36,17.74C328.85,335.32,262,327.71,219.77,285.53ZM437,318.33c-1.61,1.39-3.34,2.75-5.17,4.19-5.7,4.5-12.16,9.59-16.57,17.13-9.2,15.69-10.67,19.48-10.67,37a15,15,0,0,1-29.93,0c0-2.12,0-4.09.06-5.95v-.11c.41-19.95,3.27-26.49,14.74-46.06,6.31-10.77,12.17-15.63,21-23,2.2-1.82,4.47-3.71,6.93-5.84,12.66-10.92,12.66-25.09,12.66-36.48a40.49,40.49,0,0,0-40.46-40.44c-22.7,0-40.47,18.25-40.47,41.55,0,9-6.56,16-14.93,16s-15-7-15-16c0-39.4,31.56-71.44,70.36-71.44a70.42,70.42,0,0,1,70.35,70.33c0,27.85-6.66,45-23,59.09Z"/><path class="cls-6" d="M180.74,74a10,10,0,1,0-7.05-17.08l0,0a10,10,0,0,0,7.08,17Z"/></svg>