<svg id="Capa_1" data-name="Capa 1" xmlns="http://www.w3.org/2000/svg" viewBox="0 0 512 512"><defs><style>.cls-1{fill:#d6d5de;}.cls-1,.cls-10,.cls-11,.cls-12,.cls-13,.cls-14,.cls-15,.cls-16,.cls-2,.cls-3,.cls-4,.cls-5,.cls-6,.cls-7,.cls-8,.cls-9{fill-rule:evenodd;}.cls-2{fill:#c9c8d3;}.cls-3{fill:#e7e6eb;}.cls-4{fill:#dad9e1;}.cls-5{fill:#dcdbe2;}.cls-6{fill:#f6f6f7;}.cls-7{fill:#f2c1a6;}.cls-8{fill:#9795aa;}.cls-9{fill:#e3e3e8;}.cls-10{fill:#b7b5c4;}.cls-11{fill:#edecf0;}.cls-12{fill:#aeacbc;}.cls-13{fill:#838099;}.cls-14{fill:#dedde4;}.cls-15{fill:#eeeef1;}.cls-16{fill:#e0b09d;}.cls-17{fill:#464267;}</style></defs><path class="cls-1" d="M52.33,378h67.75a36.42,36.42,0,0,1,36.31,36.32v80a12.66,12.66,0,0,1-10.18,10.21h-120A12.62,12.62,0,0,1,16,494.31v-80A36.41,36.41,0,0,1,52.33,378Z"/><path class="cls-2" d="M95.81,378h24.27a36.42,36.42,0,0,1,36.31,36.32v80a12.66,12.66,0,0,1-10.18,10.21H122a12.69,12.69,0,0,0,10.18-10.21v-80A36.43,36.43,0,0,0,95.81,378Z"/><path class="cls-3" d="M222.13,378H289.9a36.39,36.39,0,0,1,36.28,36.32v80A12.6,12.6,0,0,1,316,504.52H196a12.69,12.69,0,0,1-10.18-10.21v-80A36.43,36.43,0,0,1,222.13,378Z"/><path class="cls-4" d="M265.61,378h24.26a36.41,36.41,0,0,1,36.32,36.32v80A12.62,12.62,0,0,1,316,504.52H291.74a12.62,12.62,0,0,0,10.18-10.21v-80A36.41,36.41,0,0,0,265.61,378Z"/><path class="cls-3" d="M392,378H459.7A36.43,36.43,0,0,1,496,414.32v80a12.66,12.66,0,0,1-10.18,10.21h-120a12.62,12.62,0,0,1-10.18-10.18v-80A36.41,36.41,0,0,1,392,378Z"/><path class="cls-5" d="M435.43,378H459.7A36.43,36.43,0,0,1,496,414.32v80a12.66,12.66,0,0,1-10.18,10.21H461.54a12.67,12.67,0,0,0,10.2-10.21v-80A36.42,36.42,0,0,0,435.43,378Z"/><path class="cls-6" d="M140.46,205.94h88.72l21.07,36.48c2.8,4.85,8.61,5,11.53,0l21-36.48h88.75l39.91,38.47c4.39,4.22,9.07,1.56,9.64-3.46l4.59-39.32c40.56-12.47,70.3-50.37,70.3-94.9,0-54.57-44.65-99.22-99.24-99.22H115.23C60.66,7.51,16,52.16,16,106.73c0,44.53,29.71,82.43,70.3,94.9L90.88,241c.65,5.58,5.84,7.11,9.64,3.46Z"/><path class="cls-7" d="M256,145H234.46c0-23.1-22.57-32.14-22.57-59.75a44.11,44.11,0,0,1,88.22,0c0,27.61-22.57,36.65-22.57,59.75Z"/><path class="cls-8" d="M277.54,145v15.57a13.13,13.13,0,0,1-13.09,13.09H247.58a13.13,13.13,0,0,1-13.12-13.09V145Z"/><path class="cls-9" d="M464.18,345.21a38.37,38.37,0,0,1-76.74,0V304.08a21.54,21.54,0,0,1,21.49-21.46h33.79a21.53,21.53,0,0,1,21.46,21.46v41.13Z"/><path class="cls-10" d="M124.7,345.07a38.5,38.5,0,0,1-77,0V303.82a21.63,21.63,0,0,1,21.54-21.57H119c3.94,0,5.73,2.3,5.73,5.75v57.07Z"/><path class="cls-11" d="M387.44,304.08V329.3l26.25-12.84a13.24,13.24,0,0,1,10.55-.68l39.94,13.53V304.08a21.54,21.54,0,0,0-21.46-21.46H408.93A21.54,21.54,0,0,0,387.44,304.08Z"/><path class="cls-8" d="M47.71,303.82v12.42h77V288c0-3.45-1.79-5.75-5.73-5.75H69.25a21.63,21.63,0,0,0-21.54,21.57Z"/><path class="cls-9" d="M294.49,345.07a38.49,38.49,0,0,1-77,0V303.82a21.63,21.63,0,0,1,21.54-21.57H273a21.63,21.63,0,0,1,21.54,21.57Z"/><path class="cls-10" d="M217.51,303.82v15a29.11,29.11,0,0,0,25.14-2.33c4-2.29,4.7-2.75,8.73.77,18.48,16.19,43.11,7.2,43.11,7.2V303.82A21.63,21.63,0,0,0,273,282.25h-33.9a21.63,21.63,0,0,0-21.54,21.57Z"/><path class="cls-12" d="M100.43,316.24v28.83a38.63,38.63,0,0,1-26.36,36.51,38.45,38.45,0,0,0,50.63-36.51V316.24Z"/><path class="cls-13" d="M119,282.25H94.68c4,0,5.75,2.3,5.75,5.75v28.24H124.7V288C124.7,284.54,122.91,282.25,119,282.25Z"/><path class="cls-5" d="M270.23,345.07A38.5,38.5,0,0,1,251.58,378a37.32,37.32,0,0,1-7.71,3.58,38.51,38.51,0,0,0,50.62-36.51V324.43a51.74,51.74,0,0,1-24.26,1.79Z"/><path class="cls-12" d="M248.69,282.25a21.63,21.63,0,0,1,21.54,21.57v22.4a51.74,51.74,0,0,0,24.26-1.79V303.82A21.63,21.63,0,0,0,273,282.25Z"/><path class="cls-5" d="M439.91,345.21A38.41,38.41,0,0,1,421.37,378a37.81,37.81,0,0,1-7.68,3.58,38.4,38.4,0,0,0,50.49-36.37V329.3l-24.27-8.22Z"/><path class="cls-14" d="M442.72,282.62H418.45a21.53,21.53,0,0,1,21.46,21.46v17l24.27,8.23V304.08A21.53,21.53,0,0,0,442.72,282.62Z"/><path class="cls-15" d="M372.5,181.68H91a98.47,98.47,0,0,1-56.89-18.06,100,100,0,0,0,52.24,38L90.88,241c.65,5.58,5.84,7.11,9.64,3.46l39.94-38.47h88.73l21.06,36.48c2.8,4.85,8.61,5,11.53,0l21-36.48h88.75l39.91,38.47c4.39,4.22,9.07,1.56,9.64-3.46l4.59-39.32c40.56-12.47,70.3-50.37,70.3-94.9a99.27,99.27,0,0,0-42.32-81.16,98.47,98.47,0,0,1,18.06,56.89c0,54.57-44.65,99.22-99.25,99.22Z"/><path class="cls-16" d="M275.84,85.27c0,27.61-22.59,36.65-22.56,59.75h24.26c0-23.1,22.57-32.14,22.57-59.75A44.11,44.11,0,0,0,256,41.16a45.32,45.32,0,0,0-12.13,1.67,44.13,44.13,0,0,1,32,42.44Z"/><path class="cls-17" d="M256,152.54H242v8.05a5.57,5.57,0,0,0,1.64,3.94,5.65,5.65,0,0,0,4,1.67h16.87a5.7,5.7,0,0,0,5.61-5.61v-8.05Zm200.81,182-37.53-12.73-24.47,12v11.31a31,31,0,0,0,62,0V334.49Zm-62-17.38,20.24-9.89a7.37,7.37,0,0,1,6.15-.59l35.61,12V303.82a14.14,14.14,0,0,0-14-14.06h-33.9a14.14,14.14,0,0,0-14.06,14.06v13.29ZM55.19,308.72h62v-19H69.25a14.14,14.14,0,0,0-14.06,14.06Zm62,15h-62v21.31a31,31,0,0,0,62,0Zm169.82,10c-10.32,1.42-26.79,1.11-40.56-10.88A37.83,37.83,0,0,1,225,328v17a31,31,0,0,0,62,0V333.75ZM225,313a22.48,22.48,0,0,0,17.43-5.47,7.47,7.47,0,0,1,10.55.74c11,12.64,26.22,11.88,34,10.4V303.82A14.14,14.14,0,0,0,273,289.76h-33.9a14.14,14.14,0,0,0-14,14.06Zm-92.84,32.06a45.72,45.72,0,0,1-7.85,25.66,43.86,43.86,0,0,1,39.54,43.6v90.2a7.47,7.47,0,0,1-7.48,7.48H16a7.5,7.5,0,0,1-7.51-7.48V476.4a7.5,7.5,0,0,1,15,0V497H37.93V428.32a7.52,7.52,0,0,1,15,0V497h66.5V428.32a7.5,7.5,0,1,1,15,0V497h14.43V414.32a28.83,28.83,0,0,0-28.8-28.8h-12a46,46,0,0,1-43.71,0h-12a28.88,28.88,0,0,0-28.83,28.8v28.12a7.5,7.5,0,0,1-15,0V414.32a43.92,43.92,0,0,1,39.57-43.6,45.75,45.75,0,0,1-7.88-25.66V303.82a29.14,29.14,0,0,1,29.05-29.06H124.7a7.48,7.48,0,0,1,7.48,7.49v62.81Zm339.62,0A45.72,45.72,0,0,1,464,370.72a43.86,43.86,0,0,1,39.54,43.6v90.2A7.47,7.47,0,0,1,496,512H355.64a7.5,7.5,0,0,1-7.51-7.48V476.4a7.5,7.5,0,0,1,15,0V497h14.43V428.32a7.51,7.51,0,0,1,15,0V497h66.5V428.32a7.5,7.5,0,1,1,15,0V497H488.5V414.32a28.83,28.83,0,0,0-28.8-28.8h-12a46,46,0,0,1-43.71,0H392a28.88,28.88,0,0,0-28.83,28.8v28.12a7.5,7.5,0,0,1-15,0V414.32a43.9,43.9,0,0,1,39.57-43.6,45.75,45.75,0,0,1-7.88-25.66V303.82a29.14,29.14,0,0,1,29.05-29.06h33.9a29.09,29.09,0,0,1,29,29.06v41.25Zm-169.79,0a45.89,45.89,0,0,1-7.86,25.66,43.92,43.92,0,0,1,39.55,43.6v90.2a7.49,7.49,0,0,1-7.52,7.48H185.81a7.47,7.47,0,0,1-7.48-7.48V476.4a7.5,7.5,0,0,1,15,0V497h14.42V428.32a7.5,7.5,0,1,1,15,0V497h66.53V428.32a7.5,7.5,0,1,1,15,0V497H318.7V414.32a28.87,28.87,0,0,0-28.8-28.8h-12a46,46,0,0,1-43.69,0h-12a28.87,28.87,0,0,0-28.8,28.8v28.12a7.5,7.5,0,0,1-15,0V414.32a43.86,43.86,0,0,1,39.54-43.6A45.72,45.72,0,0,1,210,345.06V303.82a29.11,29.11,0,0,1,29-29.06H273A29.16,29.16,0,0,1,302,303.82ZM140.66,198.46h88.52a7.49,7.49,0,0,1,6.75,4.22L256,237.46q10.15-17.64,20.35-35.23a7.46,7.46,0,0,1,6.47-3.77h88.75a7.51,7.51,0,0,1,5.58,2.49l36.94,35.58,4.17-35.75a7.49,7.49,0,0,1,5.64-6.43,92.46,92.46,0,0,0,46.63-33.23A91.76,91.76,0,0,0,396.77,15H115.23A91.62,91.62,0,0,0,41.47,161.12a92.59,92.59,0,0,0,47,33.37,7.45,7.45,0,0,1,5.3,6.69l4.11,35.35,37.36-36a7.8,7.8,0,0,1,5.39-2.09Zm84.21,15H143.44L97.68,257.53a7.35,7.35,0,0,1-4.62,2.3,7.44,7.44,0,0,1-8.27-6.58l-5.36-46a107.8,107.8,0,0,1-50-37.2A106.75,106.75,0,0,1,115.23,0H396.77a106.57,106.57,0,0,1,85.77,170,107.6,107.6,0,0,1-49.94,37.19l-5.36,45.93a7.67,7.67,0,0,1-2.07,4.45,7.47,7.47,0,0,1-10.57.19l-46-44.33H287.12q-12.33,21.35-24.63,42.69a7.63,7.63,0,0,1-2.75,2.72,7.45,7.45,0,0,1-10.2-2.75Q237.21,234.77,224.87,213.45Zm2.13-69c-.2-8.53-4.65-15.3-9.3-22.36-6.52-9.89-13.32-20.21-13.32-36.82a51.62,51.62,0,0,1,103.24,0c0,16.61-6.81,26.93-13.3,36.82-4.64,7.06-9.1,13.83-9.29,22.36l0,16.13a20.69,20.69,0,0,1-20.6,20.61H247.58A20.66,20.66,0,0,1,227,160.58Zm14.29-6.94h29.45c1.64-9.3,6.29-16.33,11.11-23.64,5.24-8,10.77-16.39,10.77-28.6a36.61,36.61,0,0,0-73.22,0c0,12.21,5.5,20.6,10.77,28.6,4.8,7.31,9.44,14.34,11.12,23.64Z"/></svg>