<svg id="Capa_1" data-name="Capa 1" xmlns="http://www.w3.org/2000/svg" viewBox="0 0 512 512"><defs><style>.cls-1{fill:#fff;}.cls-2{fill:#e1e1e7;}.cls-3{fill:#f2c1a6;}.cls-4{fill:#cbcad4;}.cls-5{fill:#eeeef1;}.cls-6{fill:#464267;}</style></defs><path class="cls-1" d="M501.92,342.68V76.6a30.24,30.24,0,0,0-30.23-30.24H40.31A30.24,30.24,0,0,0,10.08,76.6V342.68a30.23,30.23,0,0,0,30.23,30.23H471.69A30.23,30.23,0,0,0,501.92,342.68Z"/><path class="cls-2" d="M448.5,86.68v205.6H283.21V86.68Z"/><path class="cls-3" d="M228.79,86.68v205.6H63.5V86.68Z"/><path class="cls-4" d="M308.62,364l7.46,59.69a14.73,14.73,0,0,0,10.15,12.43,30.75,30.75,0,0,1,22,29.48H163.78a30.75,30.75,0,0,1,22-29.48,14.73,14.73,0,0,0,10.15-12.43L203.38,364Z"/><path class="cls-5" d="M40.31,372.91a30.22,30.22,0,0,1-30.23-30.23V332.6H501.92v10.08a30.22,30.22,0,0,1-30.23,30.23Z"/><path class="cls-6" d="M197.9,239.34,158,133.61c0-.09-.07-.18-.11-.27a12.45,12.45,0,0,0-11.56-7.75h0a12.47,12.47,0,0,0-11.56,7.77l-.09.23L94.39,239.31a10.08,10.08,0,0,0,18.84,7.18l7.89-20.73h50.11l7.81,20.7a10.08,10.08,0,0,0,18.86-7.12Zm-69.1-33.73,17.49-45.93,17.34,45.93ZM340.66,253a10.15,10.15,0,0,1-10.08-10.08V135.67a10.08,10.08,0,0,1,10.08-10.08h31.15a34.74,34.74,0,0,1,27.38,56.14,38.95,38.95,0,0,1-21.94,71.12c-7.79,0-36.57.13-36.59.13Zm10.08-57.87v37.67c9.08,0,21.69-.09,26.51-.09a18.79,18.79,0,0,0,0-37.58Zm0-20.16h21.07a14.6,14.6,0,0,0,0-29.2H350.74ZM448.5,302.36H283.21a10.08,10.08,0,0,1-10.08-10.08V86.68A10.08,10.08,0,0,1,283.21,76.6H448.5a10.08,10.08,0,0,1,10.08,10.08v205.6A10.08,10.08,0,0,1,448.5,302.36ZM293.29,282.2H438.43V96.76H293.29Zm-64.5,20.16H63.5a10.08,10.08,0,0,1-10.08-10.08V86.68A10.08,10.08,0,0,1,63.5,76.6H228.79a10.08,10.08,0,0,1,10.08,10.08v205.6A10.08,10.08,0,0,1,228.79,302.36ZM73.57,282.2H218.71V96.76H73.57ZM266.06,465.64A10.08,10.08,0,1,1,256,455.56,10.1,10.1,0,0,1,266.06,465.64ZM512,76.6V342.68A40.36,40.36,0,0,1,471.69,383H321.15l4.94,39.48a4.72,4.72,0,0,0,3,4A41.09,41.09,0,0,1,350,441a40.63,40.63,0,0,1,8.28,24.63,10.11,10.11,0,0,1-10.08,10.08H301.33a10.08,10.08,0,1,1,0-20.16h34.19a21.21,21.21,0,0,0-12.15-9.74c-10.41-3.23-16-11.77-17.29-20.84l-5.25-42H211.17l-5.25,42c-1.45,10.42-8.15,18-17.29,20.84a21.21,21.21,0,0,0-12.15,9.74h34.15a10.08,10.08,0,0,1,0,20.16H163.78a10.1,10.1,0,0,1-10.08-10.08A40.39,40.39,0,0,1,162,441a40.84,40.84,0,0,1,20.93-14.52,4.7,4.7,0,0,0,3-4L190.85,383H40.31A40.36,40.36,0,0,1,0,342.68V76.6A40.37,40.37,0,0,1,40.31,36.28H471.69A40.37,40.37,0,0,1,512,76.6ZM491.84,342.68H20.16a20.17,20.17,0,0,0,20.15,20.15H471.69A20.17,20.17,0,0,0,491.84,342.68Zm0-266.08a20.18,20.18,0,0,0-20.15-20.16H40.31A20.18,20.18,0,0,0,20.16,76.6V322.52H491.84Z"/></svg>