<svg id="Capa_1" data-name="Capa 1" xmlns="http://www.w3.org/2000/svg" viewBox="0 0 512 512"><defs><style>.cls-1{fill:#fff;}.cls-2{fill:#b3b2c1;}.cls-3{fill:#d1d0d9;}.cls-4{fill:#c9c8d3;}.cls-5{fill:#afaebe;}.cls-6{fill:#464267;}.cls-7{fill:#f2c1a6;}</style></defs><rect class="cls-1" x="88.68" y="88.68" width="334.64" height="334.64"/><rect class="cls-2" x="113.44" y="113.44" width="285.13" height="285.13"/><polygon class="cls-3" points="378.8 113.44 378.8 378.79 113.44 378.79 113.44 398.56 398.56 398.56 398.56 113.44 378.8 113.44"/><path class="cls-4" d="M315.87,328.63H196.13a12.76,12.76,0,0,1-12.76-12.76V196.13a12.76,12.76,0,0,1,12.76-12.76H315.87a12.76,12.76,0,0,1,12.76,12.76V315.87A12.76,12.76,0,0,1,315.87,328.63Z"/><rect class="cls-5" x="204.68" y="204.68" width="102.63" height="102.63"/><path class="cls-6" d="M430.82,263.51h43.26a19.71,19.71,0,1,0,0-15H430.82v-65.6h43.26a19.71,19.71,0,1,0,0-15H430.82V88.68a7.5,7.5,0,0,0-7.5-7.5H391.11a7.5,7.5,0,0,0,0,15h24.71V175.4h0V256h0V336.6h0v79.2H96.18V336.61h0V256h0V175.41h0V96.18H361.56a7.5,7.5,0,0,0,0-15H344.11V37.93a19.72,19.72,0,1,0-15,0V81.18h-65.6V37.92a19.71,19.71,0,1,0-15,0V81.18h-65.6V37.92a19.71,19.71,0,1,0-15,0V81.18H88.68a7.5,7.5,0,0,0-7.5,7.5V167.9H37.93a19.72,19.72,0,1,0,0,15H81.18v65.6H37.93a19.72,19.72,0,1,0,0,15H81.18V329.1H37.93a19.71,19.71,0,1,0,0,15H81.18v79.22a7.5,7.5,0,0,0,7.5,7.5h79.21v43.26a19.71,19.71,0,1,0,15,0V430.82h65.6v43.25a19.72,19.72,0,1,0,15,0V430.82h65.6v43.26a19.71,19.71,0,1,0,15,0V430.82h79.23a7.5,7.5,0,0,0,7.5-7.5V344.11h43.25a19.72,19.72,0,1,0,0-15H430.82v-65.6Zm61.47-12.22a4.71,4.71,0,1,1-4.71,4.71A4.71,4.71,0,0,1,492.29,251.29Zm0-80.6a4.71,4.71,0,1,1-4.71,4.71A4.71,4.71,0,0,1,492.29,170.69ZM336.6,15a4.71,4.71,0,0,1,0,9.42h-.07a4.71,4.71,0,0,1,0-9.42ZM256,15a4.71,4.71,0,0,1,0,9.42H256A4.71,4.71,0,0,1,256,15Zm-80.6,0a4.71,4.71,0,0,1,0,9.42h-.06a4.71,4.71,0,0,1,0-9.42ZM19.71,180.11a4.71,4.71,0,1,1,4.71-4.71A4.71,4.71,0,0,1,19.71,180.11Zm0,80.6A4.71,4.71,0,1,1,24.42,256,4.71,4.71,0,0,1,19.71,260.71Zm0,80.6a4.71,4.71,0,1,1,4.71-4.71A4.71,4.71,0,0,1,19.71,341.31ZM175.4,497a4.71,4.71,0,0,1,0-9.42h0a4.71,4.71,0,0,1,0,9.42Zm80.6,0a4.71,4.71,0,0,1,0-9.42h0a4.71,4.71,0,0,1,0,9.42Zm80.6,0a4.71,4.71,0,0,1,0-9.42h.05a4.71,4.71,0,0,1,0,9.42ZM492.29,331.89a4.71,4.71,0,1,1-4.71,4.71A4.72,4.72,0,0,1,492.29,331.89Z"/><path class="cls-7" d="M151.12,170.69h12.07a7.5,7.5,0,0,0,7.5-7.5V151.12a7.5,7.5,0,0,0-7.5-7.5H151.12a7.5,7.5,0,0,0-7.5,7.5v12.07A7.5,7.5,0,0,0,151.12,170.69Z"/><path class="cls-7" d="M202.73,143.62H190.66a7.49,7.49,0,0,0-7.5,7.5v12.07a7.5,7.5,0,0,0,7.5,7.5h12.07a7.5,7.5,0,0,0,7.5-7.5V151.12A7.5,7.5,0,0,0,202.73,143.62Z"/><path class="cls-7" d="M242.27,170.69a7.5,7.5,0,0,0,7.5-7.5V151.12a7.5,7.5,0,0,0-7.5-7.5H230.2a7.49,7.49,0,0,0-7.5,7.5v12.07a7.5,7.5,0,0,0,7.5,7.5Z"/><path class="cls-7" d="M281.81,170.69a7.5,7.5,0,0,0,7.5-7.5V151.12a7.5,7.5,0,0,0-7.5-7.5H269.73a7.5,7.5,0,0,0-7.5,7.5v12.07a7.5,7.5,0,0,0,7.5,7.5Z"/><path class="cls-7" d="M328.85,151.12a7.5,7.5,0,0,0-7.5-7.5H309.27a7.5,7.5,0,0,0-7.5,7.5v12.07a7.5,7.5,0,0,0,7.5,7.5h12.08a7.5,7.5,0,0,0,7.5-7.5Z"/><path class="cls-7" d="M348.81,170.69h12.08a7.5,7.5,0,0,0,7.5-7.5V151.12a7.5,7.5,0,0,0-7.5-7.5H348.81a7.5,7.5,0,0,0-7.5,7.5v12.07A7.5,7.5,0,0,0,348.81,170.69Z"/><path class="cls-7" d="M143.62,360.88a7.5,7.5,0,0,0,7.5,7.5h12.07a7.5,7.5,0,0,0,7.5-7.5V348.81a7.5,7.5,0,0,0-7.5-7.5H151.12a7.5,7.5,0,0,0-7.5,7.5Z"/><path class="cls-7" d="M183.16,360.88a7.49,7.49,0,0,0,7.5,7.5h12.07a7.5,7.5,0,0,0,7.5-7.5V348.81a7.5,7.5,0,0,0-7.5-7.5H190.66a7.5,7.5,0,0,0-7.5,7.5Z"/><path class="cls-7" d="M242.27,341.31H230.2a7.5,7.5,0,0,0-7.5,7.5v12.07a7.49,7.49,0,0,0,7.5,7.5h12.07a7.5,7.5,0,0,0,7.5-7.5V348.81A7.5,7.5,0,0,0,242.27,341.31Z"/><path class="cls-7" d="M269.73,341.31a7.5,7.5,0,0,0-7.5,7.5v12.07a7.5,7.5,0,0,0,7.5,7.5h12.08a7.5,7.5,0,0,0,7.5-7.5V348.81a7.5,7.5,0,0,0-7.5-7.5Z"/><path class="cls-7" d="M321.35,341.31H309.27a7.5,7.5,0,0,0-7.5,7.5v12.07a7.5,7.5,0,0,0,7.5,7.5h12.08a7.5,7.5,0,0,0,7.5-7.5V348.81A7.5,7.5,0,0,0,321.35,341.31Z"/><path class="cls-7" d="M341.31,360.88a7.5,7.5,0,0,0,7.5,7.5h12.08a7.5,7.5,0,0,0,7.5-7.5V348.81a7.5,7.5,0,0,0-7.5-7.5H348.81a7.5,7.5,0,0,0-7.5,7.5Z"/><path class="cls-7" d="M143.62,202.73a7.5,7.5,0,0,0,7.5,7.5h12.07a7.5,7.5,0,0,0,7.5-7.5V190.66a7.5,7.5,0,0,0-7.5-7.5H151.12a7.5,7.5,0,0,0-7.5,7.5Z"/><path class="cls-7" d="M143.62,242.27a7.5,7.5,0,0,0,7.5,7.5h12.07a7.5,7.5,0,0,0,7.5-7.5V230.2a7.5,7.5,0,0,0-7.5-7.5H151.12a7.5,7.5,0,0,0-7.5,7.5Z"/><path class="cls-7" d="M143.62,281.81a7.5,7.5,0,0,0,7.5,7.5h12.07a7.5,7.5,0,0,0,7.5-7.5V269.73a7.5,7.5,0,0,0-7.5-7.5H151.12a7.5,7.5,0,0,0-7.5,7.5Z"/><path class="cls-7" d="M143.62,321.35a7.5,7.5,0,0,0,7.5,7.5h12.07a7.5,7.5,0,0,0,7.5-7.5V309.27a7.5,7.5,0,0,0-7.5-7.5H151.12a7.5,7.5,0,0,0-7.5,7.5Z"/><path class="cls-7" d="M341.31,202.73a7.5,7.5,0,0,0,7.5,7.5h12.08a7.5,7.5,0,0,0,7.5-7.5V190.66a7.5,7.5,0,0,0-7.5-7.5H348.81a7.5,7.5,0,0,0-7.5,7.5Z"/><path class="cls-7" d="M341.31,242.27a7.5,7.5,0,0,0,7.5,7.5h12.08a7.5,7.5,0,0,0,7.5-7.5V230.2a7.5,7.5,0,0,0-7.5-7.5H348.81a7.5,7.5,0,0,0-7.5,7.5Z"/><path class="cls-7" d="M341.31,281.81a7.5,7.5,0,0,0,7.5,7.5h12.08a7.5,7.5,0,0,0,7.5-7.5V269.73a7.5,7.5,0,0,0-7.5-7.5H348.81a7.5,7.5,0,0,0-7.5,7.5Z"/><path class="cls-7" d="M341.31,321.35a7.5,7.5,0,0,0,7.5,7.5h12.08a7.5,7.5,0,0,0,7.5-7.5V309.27a7.5,7.5,0,0,0-7.5-7.5H348.81a7.5,7.5,0,0,0-7.5,7.5Z"/></svg>