<svg id="Capa_1" data-name="Capa 1" xmlns="http://www.w3.org/2000/svg" viewBox="0 0 512 512"><defs><style>.cls-1{fill:#b1b0bf;}.cls-2{fill:#a3a1b3;}.cls-3{fill:#eeeef1;}.cls-4{fill:#dedde4;}.cls-5{fill:#cfced7;}.cls-6{fill:#f2c1a6;stroke:#000;stroke-miterlimit:10;}.cls-7{fill:#dbad95;}.cls-8{fill:#d8d7df;}.cls-9{fill:#cbcad4;}.cls-10{fill:#464267;}</style></defs><path class="cls-1" d="M431.32,371.9c-5.55,4.08-8.39,13.94-15.05,16.12-6.42,2.11-14.44-4.12-21.56-4.12s-15.13,6.23-21.55,4.12c-6.66-2.19-9.5-12-15.05-16.12-2.33-1.71-5.45-2.66-8.6-3.6V473.5a6.74,6.74,0,0,0,10.65,5.55l30.65-22a6.68,6.68,0,0,1,7.81,0l30.65,22a6.74,6.74,0,0,0,10.65-5.55V368.3c-3.15.94-6.27,1.89-8.6,3.6Z"/><path class="cls-2" d="M413.59,388.44c-5.89.11-12.71-4.54-18.88-4.54s-13,4.65-18.87,4.54v79.38l15-10.73a6.68,6.68,0,0,1,7.81,0l15,10.73V388.44Z"/><path class="cls-3" d="M473,31.71H39A31.64,31.64,0,0,0,7.5,63.25V335.17A31.63,31.63,0,0,0,39,366.71H473a31.63,31.63,0,0,0,31.54-31.54V63.25A31.64,31.64,0,0,0,473,31.71Z"/><path class="cls-3" d="M473,31.71H39A31.64,31.64,0,0,0,7.5,63.25V335.17A31.63,31.63,0,0,0,39,366.71H473a31.63,31.63,0,0,0,31.54-31.54V63.25A31.64,31.64,0,0,0,473,31.71Z"/><path class="cls-4" d="M91.5,335.17V63.25A31.64,31.64,0,0,1,123,31.71H39A31.64,31.64,0,0,0,7.5,63.25V335.17A31.63,31.63,0,0,0,39,366.71h84A31.63,31.63,0,0,1,91.5,335.17Z"/><path class="cls-4" d="M467.4,106.59h-.34a37.42,37.42,0,0,1-37.44-37.44v-.34a7.06,7.06,0,0,0-7.08-7.1H89.46a7.06,7.06,0,0,0-7.08,7.1v.34a37.44,37.44,0,0,1-37.44,37.44H44.6a7.07,7.07,0,0,0-7.1,7.09V284.75a7.07,7.07,0,0,0,7.1,7.09h.34a37.44,37.44,0,0,1,37.44,37.45v.33a7.06,7.06,0,0,0,7.08,7.1H332.68L453.19,294.5a37.39,37.39,0,0,1,13.87-2.67h.34a7.07,7.07,0,0,0,7.1-7.09V113.68a7.07,7.07,0,0,0-7.1-7.09Z"/><path class="cls-5" d="M127,329.61c0-.11,0-.22,0-.33a37.45,37.45,0,0,0-37.44-37.45h-.34a7.07,7.07,0,0,1-7.1-7.09V113.68a7.07,7.07,0,0,1,7.1-7.09h.34a37.44,37.44,0,0,0,37.44-37.44c0-.11,0-.22,0-.34a7.07,7.07,0,0,1,7.09-7.1H89.46a7.06,7.06,0,0,0-7.08,7.1v.34a37.44,37.44,0,0,1-37.44,37.44H44.6a7.07,7.07,0,0,0-7.1,7.09V284.75a7.07,7.07,0,0,0,7.1,7.09H45a37.44,37.44,0,0,1,37.43,37.45v.33a7.06,7.06,0,0,0,7.08,7.1h44.67A7.07,7.07,0,0,1,127,329.61Z"/><path class="cls-6" d="M464.46,322.56c0,7.12-8.42,12.83-10.51,19.25-2.16,6.66,1.22,16.21-2.81,21.75s-14.23,5.31-19.83,9.38-8.38,13.8-15,16c-6.43,2.08-14.44-4.08-21.56-4.08s-15.13,6.16-21.55,4.08c-6.66-2.17-9.51-11.93-15.05-16s-15.75-3.78-19.82-9.38-.65-15.09-2.82-21.75c-2.08-6.42-10.5-12.13-10.5-19.25s8.42-12.82,10.5-19.25c2.16-6.66-1.22-16.2,2.82-21.75s14.22-5.31,19.82-9.38,8.39-13.8,15.05-16c6.42-2.09,14.43,4.07,21.55,4.07s15.13-6.16,21.56-4.07c6.66,2.16,9.5,11.92,15,16s15.75,3.79,19.83,9.38.65,15.09,2.81,21.75C456,309.74,464.46,315.44,464.46,322.56Z"/><path class="cls-7" d="M391.49,373c-5.6-4.08-15.75-3.79-19.82-9.39s-.66-15.09-2.82-21.75c-2.09-6.42-10.5-12.13-10.5-19.25s8.41-12.82,10.5-19.25c2.16-6.66-1.22-16.2,2.82-21.75s14.22-5.31,19.82-9.38c4.35-3.17,7.05-9.86,11.23-13.64a25.52,25.52,0,0,1-8,1.75c-7.11,0-15.13-6.16-21.55-4.07-6.66,2.16-9.5,11.92-15.05,16s-15.75,3.79-19.82,9.38-.65,15.09-2.82,21.75c-2.08,6.43-10.5,12.13-10.5,19.25s8.42,12.82,10.5,19.25c2.17,6.66-1.21,16.2,2.82,21.75s14.22,5.31,19.82,9.38,8.39,13.8,15.05,16c6.42,2.09,14.43-4.07,21.55-4.07a25.52,25.52,0,0,1,8,1.75c-4.18-3.77-6.88-10.47-11.23-13.64Z"/><circle class="cls-8" cx="394.71" cy="322.56" r="37.57"/><path class="cls-9" d="M390.52,322.56A37.55,37.55,0,0,1,411.4,288.9a37.58,37.58,0,1,0,0,67.33A37.58,37.58,0,0,1,390.52,322.56Z"/><path class="cls-10" d="M394.71,367.62a45.08,45.08,0,1,0-45.07-45.07A45.13,45.13,0,0,0,394.71,367.62Zm0-75.15a30.08,30.08,0,1,1-30.07,30.07A30.11,30.11,0,0,1,394.71,292.47Z"/><path class="cls-10" d="M320.13,139.14a7.5,7.5,0,1,0,0-15H191.87a7.5,7.5,0,0,0,0,15Z"/><path class="cls-10" d="M295.57,287.21a7.5,7.5,0,0,0-7.5-7.5H223.93a7.5,7.5,0,0,0,0,15h64.14A7.5,7.5,0,0,0,295.57,287.21Z"/><path class="cls-10" d="M120.24,162.69a7.5,7.5,0,0,0,7.5,7.5H384.26a7.5,7.5,0,0,0,0-15H127.74A7.5,7.5,0,0,0,120.24,162.69Z"/><path class="cls-10" d="M127.74,201.25H384.26a7.5,7.5,0,0,0,0-15H127.74a7.5,7.5,0,0,0,0,15Z"/><path class="cls-10" d="M127.74,232.3H384.26a7.5,7.5,0,0,0,0-15H127.74a7.5,7.5,0,0,0,0,15Z"/><path class="cls-10" d="M0,63.24V335.16a39.09,39.09,0,0,0,39,39H340.46c.52.22,1,.43,1.55.63v98.72a14.24,14.24,0,0,0,22.49,11.62L380.18,474h0l14.54-10.31,30.21,21.44a14.25,14.25,0,0,0,22.49-11.62V374.83c.52-.2,1-.41,1.55-.63h24a39.08,39.08,0,0,0,39-39V216.7a7.5,7.5,0,0,0-15,0V335.16a24.06,24.06,0,0,1-24,24H460.48c.75-5.72-.38-12,.61-15.09,1.45-4.46,10.87-11.36,10.87-21.56,0-6.7-4-11.84-7.19-16s-3.65-5-3.91-6.6a29.86,29.86,0,0,1,6.2-.65A14.56,14.56,0,0,0,482,284.74V113.66a14.55,14.55,0,0,0-14.66-14.58,29.92,29.92,0,0,1-30.22-30.21A14.55,14.55,0,0,0,422.54,54.2H89.46A14.54,14.54,0,0,0,74.88,69.14,29.92,29.92,0,0,1,44.67,99.08,14.55,14.55,0,0,0,30,113.66V284.74a14.55,14.55,0,0,0,14.94,14.58,30,30,0,0,1,29.94,30.21A14.56,14.56,0,0,0,89.46,344.2h149a7.5,7.5,0,1,0,0-15H89.88A45,45,0,0,0,45,284.32V114.08A44.91,44.91,0,0,0,89.88,69.2H422.12A44.93,44.93,0,0,0,467,114.08V284.32a45,45,0,0,0-6.68.5c-1.9-10.84-10-13.86-18.07-16.23-6.86-2-6.91-2.11-10.82-7.84-2.92-4.3-6.56-9.64-12.84-11.68-6.08-2-12,.14-16.85,1.85-6.9,2.44-7.15,2.44-14.05,0-3.88-1.38-8.53-3-13.38-2.56H127.74a7.5,7.5,0,0,0,0,15H356.17a13.49,13.49,0,0,1-2.47,2.74c-4.55,3.31-19.18,2.91-23.65,15.14-2.65,7.27-.42,15.78-1.71,19.74-1.73,5.34-15.07,14.36-9.54,28.22H273.5a7.5,7.5,0,0,0,0,15h54.86c1,3.11-.16,9.3.59,15H39a24.06,24.06,0,0,1-24-24V63.24a24.06,24.06,0,0,1,24-24H473a24.06,24.06,0,0,1,24,24V181.7a7.5,7.5,0,1,0,15,0V63.24a39.08,39.08,0,0,0-39-39H39a39.08,39.08,0,0,0-39,39ZM368.34,464.05l-11.33,8V382.91c2.74,3.93,5.92,9.25,11.33,12.06Zm37.75-10.65L403,451.18c-.31-.22-.62-.42-.94-.61a14.23,14.23,0,0,0-15.55.61l-3.13,2.22V395.62c15.05-4.39,7.11-4.54,22.75,0Zm26.33,18.69-11.33-8V395c5.41-2.8,8.58-8.12,11.33-12.06Zm-95.9-156.33c6.34-8.18,7.49-11.39,7.2-22.26-.21-7.77-.05-7.91,4-9.34,11.15-4,14.34-2.67,22.71-15,1.63-2.38,3.64-5.33,5-5.84,1.64,0,1.61-.3,7.25,1.7,10.25,3.64,13.87,3.62,24.07,0,2.52-.89,6-2.12,7.2-1.72,1.4.46,3.44,3.45,5.08,5.86,6,8.8,8.75,10.78,19,13.79,8.08,2.38,7.91,2.16,7.69,10.52-.28,10.87.84,14.06,7.2,22.26,5.27,6.81,5.28,6.76,0,13.57-7.24,9.34-7.36,12.14-7.16,23.87.13,8.2-.42,6.17-12,10.24-7.48,2.63-10.22,5.86-14.72,12.46-4.9,7.2-4.62,6.84-12.29,4.13-14.25-5-16.26-2.15-27.73,1.22-4.57,1.33-4.06,1-10.25-7.71-9.71-13.58-19.93-9.91-24.27-14.26-1.05-1.11-.83-5.66-.77-7.69.23-8.66-.25-12.62-5-19.29-7.06-9.85-8.5-8.46-2.24-16.54Z"/></svg>